# xmcd CD database file
#
# Track frame offsets:
#	150
#	13113
#	42935
#	70923
#	97924
#	122311
#	150405
#	170075
#	191904
#	214848
#	233852
#	253222
#	257683
#
# Disc length: 3762 seconds
#
# Revision: 0
# Processed by: cddbd v1.5.2PL0 Copyright (c) Steve Scherf et al.
# Submitted via: CDex 1.70beta2
#
DISCID=b00eb00d
DTITLE=S.M.V. - Thunder
DYEAR=2008
DGENRE=Jazz
TTITLE0=Maestros De Las Frecuencias Bajas
TTITLE1=Thunder
TTITLE2=Hillbillies On A Quiet Afternoon
TTITLE3=Mongoose Walk
TTITLE4=Los Tres Hermanos
TTITLE5=Lopsy Lu-Silly Putty (Medley)
TTITLE6=Milano
TTITLE7=Classical Thump (Jam)
TTITLE8=Tutu
TTITLE9=Lil' Victa
TTITLE10=Pendulum
TTITLE11="Lemme Try Your Bass" (Interlude)
TTITLE12=Grits
EXTD=YEAR: 2008
EXTT0=
EXTT1=
EXTT2=
EXTT3=
EXTT4=
EXTT5=
EXTT6=
EXTT7=
EXTT8=
EXTT9=
EXTT10=
EXTT11=
EXTT12=
PLAYORDER=
